<svg width="48" height="48" viewBox="0 0 48 48" fill="none" xmlns="http://www.w3.org/2000/svg">
<path d="M28.4778 2V3.9904C36.516 7.12912 41.7982 14.8994 41.7982 23.4734C41.7982 23.3203 41.6451 23.3203 41.6451 23.0524C40.0757 16.4687 35.0614 11.4544 28.5926 9.73196V11.3013C32.8796 12.6027 36.6308 15.4735 38.6212 19.3395C34.0279 15.7415 26.4491 14.7463 19.1382 17.196C9.10956 20.6409 2.94695 29.6743 5.66462 37.2532C7.65503 42.9947 14.277 46.2866 21.5879 45.9804C26.4491 44.1048 30.3151 41.1192 32.9179 37.368C32.4969 39.8178 31.3485 42.1144 29.6261 44.3727C36.7839 41.5019 41.9513 35.9135 42.6786 30.0571C43.0996 29.0619 43.2527 28.0667 43.5207 26.7653C45.1283 15.7797 38.5064 5.44494 28.4778 2Z" fill="#3BB44A"/>
<path d="M25.5753 35.3588C31.2753 34.0173 35.0716 29.4266 34.0545 25.1054C33.0375 20.7841 27.5922 18.3685 21.8923 19.7101C16.1923 21.0516 12.396 25.6423 13.4131 29.9635C14.4301 34.2848 19.8754 36.7004 25.5753 35.3588Z" fill="black"/>
<path d="M26.4044 28.2871C28.7091 27.7442 30.2395 25.8695 29.8226 24.0998C29.4057 22.3301 27.1995 21.3356 24.8948 21.8786C22.5901 22.4215 21.0597 24.2962 21.4766 26.0658C21.8935 27.8355 24.0998 28.83 26.4044 28.2871Z" fill="white"/>
</svg>
